<svg xmlns="http://www.w3.org/2000/svg" viewBox="0 0 64 64" role="img" aria-label="T with heart favicon">
  <defs>
    <linearGradient id="bg" x1="0%" x2="100%" y1="0%" y2="100%">
      <stop offset="0%" stop-color="#1a1026" />
      <stop offset="100%" stop-color="#090b14" />
    </linearGradient>
    <linearGradient id="accent" x1="0%" x2="100%" y1="0%" y2="100%">
      <stop offset="0%" stop-color="#ff6aa8" />
      <stop offset="100%" stop-color="#ff9ec4" />
    </linearGradient>
  </defs>
  <rect width="64" height="64" rx="16" fill="url(#bg)" />
  <path
    d="M15 18h30c1.7 0 3 1.3 3 3s-1.3 3-3 3H34v24c0 2-1.6 3.5-3.5 3.5S27 50 27 48V24H15c-1.7 0-3-1.3-3-3s1.3-3 3-3Z"
    fill="#f7f3ff"
  />
  <path
    d="M47.6 28.8c2.8 0 5.1 2.2 5.1 5 0 5.6-6.7 9.3-9.2 10.5a1.1 1.1 0 0 1-1 0c-2.5-1.2-9.2-4.9-9.2-10.5 0-2.8 2.3-5 5.1-5 1.8 0 3.5.9 4.6 2.4 1.1-1.5 2.8-2.4 4.6-2.4Z"
    fill="url(#accent)"
  />
</svg>
